<?xml version="1.0" encoding="UTF-8" standalone="no"?>
<!-- Created with Inkscape (http://www.inkscape.org/) -->

<svg
   xmlns:dc="http://purl.org/dc/elements/1.1/"
   xmlns:cc="http://creativecommons.org/ns#"
   xmlns:rdf="http://www.w3.org/1999/02/22-rdf-syntax-ns#"
   xmlns:svg="http://www.w3.org/2000/svg"
   xmlns="http://www.w3.org/2000/svg"
   xmlns:sodipodi="http://sodipodi.sourceforge.net/DTD/sodipodi-0.dtd"
   xmlns:inkscape="http://www.inkscape.org/namespaces/inkscape"
   width="97.366669mm"
   height="130.96875mm"
   viewBox="0 0 97.366669 130.96875"
   version="1.1"
   id="svg8"
   inkscape:version="0.92.4 (5da689c313, 2019-01-14)"
   sodipodi:docname="papers.svg">
  <defs
     id="defs2" />
  <sodipodi:namedview
     id="base"
     pagecolor="#ffffff"
     bordercolor="#666666"
     borderopacity="1.0"
     inkscape:pageopacity="0.0"
     inkscape:pageshadow="2"
     inkscape:zoom="0.5"
     inkscape:cx="16.252691"
     inkscape:cy="215.99984"
     inkscape:document-units="mm"
     inkscape:current-layer="layer1"
     showgrid="false"
     fit-margin-top="0"
     fit-margin-left="0"
     fit-margin-right="0"
     fit-margin-bottom="0"
     inkscape:window-width="1920"
     inkscape:window-height="986"
     inkscape:window-x="-11"
     inkscape:window-y="-11"
     inkscape:window-maximized="1" />
  <metadata
     id="metadata5">
    <rdf:RDF>
      <cc:Work
         rdf:about="">
        <dc:format>image/svg+xml</dc:format>
        <dc:type
           rdf:resource="http://purl.org/dc/dcmitype/StillImage" />
        <dc:title></dc:title>
      </cc:Work>
    </rdf:RDF>
  </metadata>
  <g
     inkscape:label="Layer 1"
     inkscape:groupmode="layer"
     id="layer1"
     transform="translate(-88.106249,-75.014541)">
    <path
       style="stroke-width:8.00000095"
       d="m 397,283.51953 v 32 h -32 v 32 h -32 v 64 16 32.4082 16.06446 24.24804 16.41602 61.72656 16.41602 24.24805 16.06445 32.4082 16 95 h 304 v -31 h 32 v -32 h 32 v -432 z m 16,16 h 272 v 400 h -16 v -384 H 413 Z m -32,32 h 272 v 400 h -16 v -315.3125 l -68.6875,-68.6875 H 381 Z m -32,32 h 208 v 64 h 64 v 336 H 349 Z m 224,11.3125 36.6875,36.6875 H 573 Z"
       transform="scale(0.26458333)"
       id="path978"
       inkscape:connector-curvature="0" />
    <path
       inkscape:connector-curvature="0"
       d="M 96.572918,163.91458 H 126.20625 V 134.28125 H 96.572918 Z m 4.233332,-25.4 h 21.16667 v 21.16667 h -21.16667 z"
       id="path980"
       style="stroke-width:2.11666679" />
    <path
       inkscape:connector-curvature="0"
       d="m 130.43958,142.74792 h 29.63334 v 4.23333 h -29.63334 z"
       id="path982"
       style="stroke-width:2.11666679" />
    <path
       inkscape:connector-curvature="0"
       d="m 130.43958,134.28125 h 29.63334 v 4.23333 h -29.63334 z"
       id="path984"
       style="stroke-width:2.11666679" />
    <path
       inkscape:connector-curvature="0"
       d="m 155.83959,151.21458 h 4.23333 v 4.23334 h -4.23333 z"
       id="path986"
       style="stroke-width:2.11666679" />
    <path
       inkscape:connector-curvature="0"
       d="m 130.43958,151.21458 h 21.16667 v 4.23334 h -21.16667 z"
       id="path988"
       style="stroke-width:2.11666679" />
    <path
       inkscape:connector-curvature="0"
       d="m 130.43958,117.34792 h 29.63334 v 4.23333 h -29.63334 z"
       id="path990"
       style="stroke-width:2.11666679" />
    <path
       inkscape:connector-curvature="0"
       d="m 130.43958,108.88125 h 12.70001 v 4.23333 h -12.70001 z"
       id="path992"
       style="stroke-width:2.11666679" />
    <path
       inkscape:connector-curvature="0"
       d="m 130.43958,100.41458 h 12.70001 v 4.23334 h -12.70001 z"
       id="path994"
       style="stroke-width:2.11666679" />
    <path
       inkscape:connector-curvature="0"
       d="m 138.90625,125.81458 h 21.16667 v 4.23334 h -21.16667 z"
       id="path996"
       style="stroke-width:2.11666679" />
    <path
       inkscape:connector-curvature="0"
       d="m 130.43958,125.81458 h 4.23334 v 4.23334 h -4.23334 z"
       id="path998"
       style="stroke-width:2.11666679" />
    <path
       inkscape:connector-curvature="0"
       d="m 130.43958,159.68125 h 29.63334 v 4.23333 h -29.63334 z"
       id="path1000"
       style="stroke-width:2.11666679" />
    <path
       inkscape:connector-curvature="0"
       d="m 130.43958,197.78125 h 29.63334 v -29.63333 h -29.63334 z m 4.23334,-25.4 h 21.16667 v 21.16667 h -21.16667 z"
       id="path1002"
       style="stroke-width:2.11666679" />
    <path
       inkscape:connector-curvature="0"
       d="m 96.572918,176.61458 h 4.233332 v 4.23334 h -4.233332 z"
       id="path1004"
       style="stroke-width:2.11666679" />
    <path
       inkscape:connector-curvature="0"
       d="m 105.03958,176.61458 h 21.16667 v 4.23334 h -21.16667 z"
       id="path1006"
       style="stroke-width:2.11666679" />
    <path
       inkscape:connector-curvature="0"
       d="m 96.572918,168.14792 h 29.633332 v 4.23333 H 96.572918 Z"
       id="path1008"
       style="stroke-width:2.11666679" />
    <path
       inkscape:connector-curvature="0"
       d="m 96.572918,185.08125 h 29.633332 v 4.23333 H 96.572918 Z"
       id="path1010"
       style="stroke-width:2.11666679" />
    <path
       inkscape:connector-curvature="0"
       d="m 96.572918,193.54792 h 21.166662 v 4.23333 H 96.572918 Z"
       id="path1012"
       style="stroke-width:2.11666679" />
    <path
       inkscape:connector-curvature="0"
       d="m 121.97292,193.54792 h 4.23333 v 4.23333 h -4.23333 z"
       id="path1014"
       style="stroke-width:2.11666679" />
    <path
       inkscape:connector-curvature="0"
       d="m 111.38958,100.41458 c -8.16821,0 -14.816662,6.64634 -14.816662,14.81667 0,8.17033 6.648452,14.81667 14.816662,14.81667 8.16822,0 14.81667,-6.64634 14.81667,-14.81667 0,-8.17033 -6.64845,-14.81667 -14.81667,-14.81667 z m 0,25.4 c -5.83565,0 -10.58333,-4.74768 -10.58333,-10.58333 0,-5.83565 4.74768,-10.58333 10.58333,-10.58333 5.83565,0 10.58334,4.74768 10.58334,10.58333 0,5.83565 -4.74769,10.58333 -10.58334,10.58333 z"
       id="path1016"
       style="stroke-width:2.11666679" />
  </g>
</svg>
