<?xml version="1.0" encoding="UTF-8" standalone="no"?>
<!-- Created with Inkscape (http://www.inkscape.org/) -->

<svg
   xmlns:dc="http://purl.org/dc/elements/1.1/"
   xmlns:cc="http://creativecommons.org/ns#"
   xmlns:rdf="http://www.w3.org/1999/02/22-rdf-syntax-ns#"
   xmlns:svg="http://www.w3.org/2000/svg"
   xmlns="http://www.w3.org/2000/svg"
   xmlns:sodipodi="http://sodipodi.sourceforge.net/DTD/sodipodi-0.dtd"
   xmlns:inkscape="http://www.inkscape.org/namespaces/inkscape"
   width="128.3595mm"
   height="30.196455mm"
   viewBox="0 0 128.3595 30.196455"
   version="1.1"
   id="svg3813"
   inkscape:version="0.92.4 (5da689c313, 2019-01-14)"
   sodipodi:docname="RPA.svg">
  <defs
     id="defs3807" />
  <sodipodi:namedview
     id="base"
     pagecolor="#ffffff"
     bordercolor="#666666"
     borderopacity="1.0"
     inkscape:pageopacity="0.0"
     inkscape:pageshadow="2"
     inkscape:zoom="0.35"
     inkscape:cx="-605.94881"
     inkscape:cy="-65.856188"
     inkscape:document-units="mm"
     inkscape:current-layer="layer1"
     showgrid="false"
     fit-margin-top="0"
     fit-margin-left="0"
     fit-margin-right="0"
     fit-margin-bottom="0"
     inkscape:window-width="1920"
     inkscape:window-height="986"
     inkscape:window-x="-11"
     inkscape:window-y="-11"
     inkscape:window-maximized="1" />
  <metadata
     id="metadata3810">
    <rdf:RDF>
      <cc:Work
         rdf:about="">
        <dc:format>image/svg+xml</dc:format>
        <dc:type
           rdf:resource="http://purl.org/dc/dcmitype/StillImage" />
        <dc:title />
      </cc:Work>
    </rdf:RDF>
  </metadata>
  <g
     inkscape:label="Layer 1"
     inkscape:groupmode="layer"
     id="layer1"
     transform="translate(-10.645385,-10.498142)">
    <g
       id="g3929"
       transform="matrix(0.03282934,0,0,0.03282934,10.547156,10.498138)"
       style="fill:#3dadb2;fill-opacity:1">
      <g
         id="g3870"
         style="fill:#3dadb2;fill-opacity:1">
        <path
           id="path3862"
           d="m 684.833,209.4 27,-33.8 c 37,-46.2 29.5,-113.7 -16.801,-150.7 l -1.699,-1.4 c -46.2,-37 -113.7,-29.5 -150.7,16.8 l -26.9,33.7 z"
           inkscape:connector-curvature="0"
           style="fill:#3dadb2;fill-opacity:1" />
        <path
           id="path3864"
           d="m 520.532,493.5 c 0.9,8.199 5,16 11.9,21.6 13.9,11.1 34.2,8.9 45.3,-5 l 185.5,-232 c 11.3,-14.1 8.8,-34.8 -5.7,-45.8 -14,-10.6 -34.1,-7.6 -45.1,6.1 l -18.1,22.6 -31,-24.8 0.1,-0.1 -169,-135.5 -432.4,540.5 169.1,135.4 392.1,-490 31,24.8 -126.8,158.5 c -5.599,6.899 -7.799,15.5 -6.9,23.7 z"
           inkscape:connector-curvature="0"
           style="fill:#3dadb2;fill-opacity:1" />
        <path
           id="path3866"
           d="M 203.032,801.5 43.732,673.899 c -2.6,8.9 -3.9,16.7 -3.9,16.7 l -36.5,174.8 c -2.6,12.601 10.2,22.9 21.9,17.5 l 162.6,-74 c -0.1,0 7.1,-3 15.2,-7.399 z"
           inkscape:connector-curvature="0"
           style="fill:#3dadb2;fill-opacity:1" />
        <path
           id="path3868"
           d="m 893.633,832.8 c -1.4,0 -2.7,0.1 -4.101,0.3 l -245.699,31.8 c -12.601,1.601 -21.4,-12.2 -14.601,-23 3.7,-5.7 7.3,-11.5 10.9,-17.3 9.5,-15.4 -3.2,-35.9 -20.8,-35.9 -1.2,0 -2.4,0.101 -3.7,0.301 l -322,48.399 -38.5,5.8 -105,15.801 c -11.9,1.8 -19.9,11.899 -18.9,24 0.4,5.399 2.6,10.5 6.1,14.3 4.1,4.5 9.8,7 16,7 1.2,0 2.4,-0.101 3.7,-0.3 l 383.801,-57.7 c 13.1,-2 22.1,12.8 14.399,23.6 -2.5,3.4 -5,6.9 -7.5,10.3 -6.899,9.4 -5.3,25.101 2.7,33.2 4.1,4.2 9.3,6.4 14.8,6.4 0.601,0 1.3,0 1.9,-0.101 h 0.1 0.101 l 331.3,-42.199 h 0.1 0.101 c 5.699,-0.9 10.699,-4.2 14,-9.301 3.6,-5.6 4.899,-12.5 3.3,-18.699 C 913.532,839.399 904.732,832.8 893.633,832.8 Z"
           inkscape:connector-curvature="0"
           style="fill:#3dadb2;fill-opacity:1" />
      </g>
      <g
         id="g3872"
         style="fill:#3dadb2;fill-opacity:1" />
      <g
         id="g3874"
         style="fill:#3dadb2;fill-opacity:1" />
      <g
         id="g3876"
         style="fill:#3dadb2;fill-opacity:1" />
      <g
         id="g3878"
         style="fill:#3dadb2;fill-opacity:1" />
      <g
         id="g3880"
         style="fill:#3dadb2;fill-opacity:1" />
      <g
         id="g3882"
         style="fill:#3dadb2;fill-opacity:1" />
      <g
         id="g3884"
         style="fill:#3dadb2;fill-opacity:1" />
      <g
         id="g3886"
         style="fill:#3dadb2;fill-opacity:1" />
      <g
         id="g3888"
         style="fill:#3dadb2;fill-opacity:1" />
      <g
         id="g3890"
         style="fill:#3dadb2;fill-opacity:1" />
      <g
         id="g3892"
         style="fill:#3dadb2;fill-opacity:1" />
      <g
         id="g3894"
         style="fill:#3dadb2;fill-opacity:1" />
      <g
         id="g3896"
         style="fill:#3dadb2;fill-opacity:1" />
      <g
         id="g3898"
         style="fill:#3dadb2;fill-opacity:1" />
      <g
         id="g3900"
         style="fill:#3dadb2;fill-opacity:1" />
    </g>
    <text
       xml:space="preserve"
       style="font-style:normal;font-weight:normal;font-size:10.58333302px;line-height:1.25;font-family:sans-serif;letter-spacing:0px;word-spacing:0px;fill:#3dadb2;fill-opacity:1;stroke:none;stroke-width:0.26458332;"
       x="42.03096"
       y="20.867977"
       id="text3933"><tspan
         sodipodi:role="line"
         id="tspan3931"
         x="42.03096"
         y="20.867977"
         style="font-style:normal;font-variant:normal;font-weight:bold;font-stretch:normal;font-size:12.69999981px;font-family:Arial;-inkscape-font-specification:'Arial, Bold';font-variant-ligatures:normal;font-variant-caps:normal;font-variant-numeric:normal;font-feature-settings:normal;text-align:start;writing-mode:lr-tb;text-anchor:start;fill:#3dadb2;fill-opacity:1;stroke-width:0.26458332;">R. Perez-Alonso</tspan><tspan
         sodipodi:role="line"
         x="42.03096"
         y="36.742977"
         style="font-style:normal;font-variant:normal;font-weight:bold;font-stretch:normal;font-size:12.69999981px;font-family:Arial;-inkscape-font-specification:'Arial, Bold';font-variant-ligatures:normal;font-variant-caps:normal;font-variant-numeric:normal;font-feature-settings:normal;text-align:start;writing-mode:lr-tb;text-anchor:start;fill:#3dadb2;fill-opacity:1;stroke-width:0.26458332;"
         id="tspan3935">Copy Editing</tspan></text>
  </g>
</svg>
