<?xml version="1.0" encoding="UTF-8" standalone="no"?>
<svg
   xmlns:dc="http://purl.org/dc/elements/1.1/"
   xmlns:cc="http://creativecommons.org/ns#"
   xmlns:rdf="http://www.w3.org/1999/02/22-rdf-syntax-ns#"
   xmlns:svg="http://www.w3.org/2000/svg"
   xmlns="http://www.w3.org/2000/svg"
   xmlns:sodipodi="http://sodipodi.sourceforge.net/DTD/sodipodi-0.dtd"
   xmlns:inkscape="http://www.inkscape.org/namespaces/inkscape"
   id="Layer_1"
   style="enable-background:new 0 0 256 256;"
   version="1.1"
   viewBox="0 0 256 256"
   xml:space="preserve"
   sodipodi:docname="tutoring.svg"
   inkscape:version="0.92.4 (5da689c313, 2019-01-14)"><metadata
     id="metadata19"><rdf:RDF><cc:Work
         rdf:about=""><dc:format>image/svg+xml</dc:format><dc:type
           rdf:resource="http://purl.org/dc/dcmitype/StillImage" /><dc:title></dc:title></cc:Work></rdf:RDF></metadata><defs
     id="defs17" /><sodipodi:namedview
     pagecolor="#ffffff"
     bordercolor="#666666"
     borderopacity="1"
     objecttolerance="10"
     gridtolerance="10"
     guidetolerance="10"
     inkscape:pageopacity="0"
     inkscape:pageshadow="2"
     inkscape:window-width="1920"
     inkscape:window-height="986"
     id="namedview15"
     showgrid="false"
     inkscape:zoom="2"
     inkscape:cx="229.42373"
     inkscape:cy="128"
     inkscape:window-x="-11"
     inkscape:window-y="-11"
     inkscape:window-maximized="1"
     inkscape:current-layer="Layer_1" /><path
     inkscape:connector-curvature="0"
     id="path2"
     d="m 79.2,176.1 -13.1,-2 -3.4,-36 C 61.7,122.1 48,109.9 32,110.9 16,111.9 3.8,125.6 4.8,141.8 l 3.6,37.7 c 0.7,11.4 8,21.3 18.6,25.3 2.8,1.4 5.9,2 9.1,1.9 l 27.5,1.3 c 2.8,0.1 5.1,-2 5.2,-4.7 0.1,-2.7 -2,-5.1 -4.7,-5.2 l -27.8,-1.3 c -0.2,0 -0.3,0 -0.5,0 -1.6,0.1 -3.1,-0.2 -4.5,-0.9 -0.2,-0.1 -0.4,-0.2 -0.6,-0.2 -7.1,-2.6 -12,-9.2 -12.5,-16.9 L 14.7,141 c -0.6,-10.5 7.4,-19.5 17.9,-20.2 10.6,-0.6 19.5,7.4 20.2,18 l 3.6,37.7 c 0,0.6 0,1.1 0,1.7 -0.1,2.5 1.7,4.6 4.2,5 l 17.1,2.7 c 2.1,0.3 3.6,2.1 3.6,4.2 v 41.7 c 0,2.7 2.2,5 5,5 2.7,0 5,-2.2 5,-5 v -41.7 c -0.2,-7 -5.2,-12.9 -12.1,-14 z" /><path
     inkscape:connector-curvature="0"
     id="path4"
     d="m 35.5,99.5 c 14.3,0 26,-11.7 26,-26 0,-14.3 -11.7,-26 -26,-26 -14.3,0 -26,11.7 -26,26 0,14.3 11.7,26 26,26 z m 0,-42.1 c 8.9,0 16.1,7.2 16.1,16.1 0,8.9 -7.2,16.1 -16.1,16.1 -8.9,0 -16.1,-7.2 -16.1,-16.1 0,-8.9 7.3,-16.1 16.1,-16.1 z" /><path
     inkscape:connector-curvature="0"
     id="path6"
     d="m 224,110.9 c -15.9,-1 -29.7,11.2 -30.7,27 l -3.4,36.2 -13.1,2 c -6.9,1.1 -12,7 -12,14 v 41.7 c 0,2.7 2.2,5 5,5 2.8,0 5,-2.2 5,-5 v -41.7 c 0,-2.1 1.5,-3.8 3.6,-4.2 l 17.1,-2.7 c 2.5,-0.4 4.3,-2.5 4.2,-5 0,-0.6 0,-1.1 0,-1.5 l 3.6,-38 c 0.6,-10.5 9.6,-18.5 20.2,-17.9 10.5,0.6 18.5,9.7 17.9,20 l -3.6,38 c -0.5,7.5 -5.3,14.1 -12.4,16.7 -0.2,0.1 -0.4,0.2 -0.6,0.2 -1.4,0.7 -2.9,1 -4.5,0.9 -0.2,0 -0.4,0 -0.5,0 l -27.8,1.3 c -2.7,0.1 -4.9,2.5 -4.7,5.2 0.1,2.7 2.4,4.9 5.2,4.7 l 27.5,-1.3 c 3.1,0.1 6.3,-0.5 9.1,-1.9 10.6,-4.1 17.9,-14 18.6,-25.2 l 3.6,-38 C 252.2,125.6 240,111.8 224,110.9 Z" /><path
     inkscape:connector-curvature="0"
     id="path8"
     d="m 220.5,99.5 c 14.3,0 26,-11.7 26,-26 0,-14.3 -11.7,-26 -26,-26 -14.3,0 -26,11.7 -26,26 0,14.3 11.6,26 26,26 z m 0,-42.1 c 8.9,0 16.1,7.2 16.1,16.1 0,8.9 -7.2,16.1 -16.1,16.1 -8.9,0 -16.1,-7.2 -16.1,-16.1 0,-8.9 7.2,-16.1 16.1,-16.1 z" /><g
     id="g4540"><rect
       y="158.13559"
       x="80.271187"
       height="10"
       width="93.288002"
       id="rect4534"
       style="fill:#000000;fill-opacity:1;stroke-width:0.715648"
       ry="5" /><rect
       y="164.88135"
       x="121.91519"
       height="74.847466"
       width="10"
       id="rect4536"
       style="fill:#000000;fill-opacity:1;stroke-width:0.75905979"
       ry="5" /></g></svg>